<?xml version="1.0" standalone="no"?>
<!DOCTYPE svg PUBLIC "-//W3C//DTD SVG 20010904//EN"
 "http://www.w3.org/TR/2001/REC-SVG-20010904/DTD/svg10.dtd">
<svg version="1.0" xmlns="http://www.w3.org/2000/svg"
 width="600.000000pt" height="600.000000pt" viewBox="0 0 600.000000 600.000000"
 preserveAspectRatio="xMidYMid meet">
<metadata>
Created by potrace 1.14, written by Peter Selinger 2001-2017
</metadata>
<g transform="translate(0.000000,600.000000) scale(0.100000,-0.100000)"
fill="#000000" stroke="none">
<path d="M3750 4009 c-43 -16 -83 -21 -187 -22 l-133 -2 -10 -29 c-12 -34 -27
-26 -32 16 -4 28 -18 51 -18 30 0 -7 -1 -15 -2 -19 -1 -5 -5 -30 -10 -57 -4
-27 -12 -52 -18 -56 -5 -3 -11 -18 -12 -33 -2 -19 -7 -26 -18 -22 -8 2 -22 0
-30 -5 -11 -7 -9 -11 13 -19 18 -7 27 -18 27 -33 0 -29 15 -53 32 -53 17 0 30
-103 23 -180 -7 -68 -12 -79 -40 -83 -11 -2 -23 -9 -27 -15 -4 -7 -8 4 -9 23
0 19 -3 29 -6 22 -9 -22 -98 -61 -164 -72 -35 -5 -116 -10 -179 -9 -135 0
-214 21 -236 60 -12 21 -13 10 -7 -88 5 -95 3 -116 -11 -138 -23 -35 -62 -33
-102 5 l-32 29 -12 -28 c-23 -56 -123 -90 -341 -116 -30 -4 -46 -11 -47 -20 0
-8 -1 -49 -2 -91 -1 -60 -5 -79 -21 -95 -10 -10 -26 -20 -34 -20 -52 -5 -85
-15 -85 -28 0 -4 33 -15 73 -24 39 -9 90 -21 112 -26 l40 -9 -40 -1 c-129 -2
-308 62 -278 101 5 7 6 24 2 38 -6 21 -14 11 -10 -12 0 -5 -2 -8 -6 -8 -5 0
-8 -11 -8 -26 0 -22 12 -31 95 -72 l94 -47 141 0 c111 0 146 3 170 17 17 9 49
21 72 27 27 8 49 22 63 41 12 17 18 30 14 30 -5 0 10 19 32 43 106 113 108
116 86 110 -12 -3 -20 -8 -17 -12 2 -4 -10 -5 -26 -3 -17 3 -33 12 -37 21 -5
12 -8 8 -13 -14 -4 -19 -7 -1 -8 51 l-1 80 35 -2 c52 -5 69 -18 71 -56 1 -18
2 -36 3 -40 2 -13 66 -29 172 -45 30 -4 166 16 359 52 14 2 37 19 53 37 28 34
36 54 15 42 -7 -4 4 11 25 32 20 22 37 45 37 51 0 6 11 18 25 27 14 9 25 14
25 12 0 -3 13 -1 30 4 16 5 72 5 123 2 52 -4 110 -4 128 0 19 4 68 12 109 18
82 12 120 37 145 97 18 43 42 66 90 90 35 17 57 19 165 16 69 -1 153 2 187 8
56 10 63 14 72 41 14 39 14 41 -1 32 -7 -4 -4 3 7 15 17 20 21 40 24 141 l3
119 -53 -21 c-78 -30 -310 -32 -384 -4 -27 11 -55 26 -61 34 -8 11 -12 -12
-17 -94 -4 -59 -12 -113 -17 -118 -7 -7 -10 -5 -10 6 0 14 -5 13 -37 -3 -57
-28 -133 -39 -267 -39 -141 1 -212 19 -236 62 -13 24 -13 29 4 47 36 40 110
56 258 56 75 0 139 3 143 7 6 5 17 239 12 237 -1 0 -27 -9 -57 -20z m192 -467
c-6 -69 -12 -65 -12 9 0 38 4 59 9 51 4 -7 6 -34 3 -60z m-579 -190 c5 -43 -6
-62 -32 -55 -13 3 -21 -1 -24 -14 -3 -10 -5 14 -6 54 l-1 72 29 -10 c23 -8 30
-17 34 -47z m204 2 c-3 -3 -12 -4 -19 -1 -8 3 -5 6 6 6 11 1 17 -2 13 -5z
m-700 -240 c-3 -3 -12 -4 -19 -1 -8 3 -5 6 6 6 11 1 17 -2 13 -5z m40 -10 c-3
-3 -12 -4 -19 -1 -8 3 -5 6 6 6 11 1 17 -2 13 -5z m-362 -224 c-3 -5 -11 -10
-16 -10 -6 0 -7 5 -4 10 3 6 11 10 16 10 6 0 7 -4 4 -10z"/>
<path d="M3242 3868 c-23 -29 -131 -50 -267 -55 -126 -3 -130 -4 -143 -28 -17
-34 -32 -32 -32 4 0 56 -17 40 -24 -22 -3 -34 -11 -63 -16 -65 -6 -2 -10 -12
-10 -22 0 -25 -11 -51 -19 -46 -4 3 -13 1 -21 -4 -12 -7 -12 -12 3 -28 9 -10
17 -23 17 -28 1 -30 17 -33 71 -13 45 18 77 21 194 22 84 0 155 -5 177 -12 29
-10 41 -9 57 1 26 16 28 30 4 22 -12 -4 -10 1 8 17 14 13 32 33 40 43 13 18
12 19 -3 13 -16 -5 -18 5 -20 105 -2 91 -5 108 -16 96z"/>
<path d="M2569 3662 c-58 -29 -144 -43 -287 -46 -106 -3 -114 -5 -130 -27
l-16 -23 -6 24 c-3 13 -11 25 -18 28 -9 3 -12 -14 -12 -57 0 -34 -4 -61 -10
-61 -5 0 -10 -18 -10 -41 0 -23 -4 -38 -10 -34 -5 3 -21 3 -35 -1 l-25 -6 20
-18 c16 -14 19 -25 14 -45 -7 -30 -20 -29 121 -5 60 10 217 0 279 -18 20 -5
43 -3 75 8 65 23 101 42 101 52 0 5 -9 4 -19 -2 -37 -19 -32 -10 11 23 42 32
67 84 34 71 -14 -5 -16 7 -16 87 0 52 -4 99 -8 104 -4 6 -24 2 -53 -13z m-376
-299 c-7 -2 -19 -2 -25 0 -7 3 -2 5 12 5 14 0 19 -2 13 -5z"/>
<path d="M4125 3374 c-357 -140 -938 -367 -1290 -505 -352 -138 -644 -254
-648 -258 -7 -7 41 -1310 49 -1319 1 -2 168 83 371 189 636 332 732 381 742
375 5 -4 13 -1 17 5 4 8 3 9 -4 5 -7 -4 -12 -5 -12 -2 0 3 18 15 41 27 23 11
38 16 35 10 -4 -7 -1 -8 8 -5 9 3 14 10 11 14 -3 5 4 6 14 3 13 -3 25 3 36 21
10 14 22 26 29 26 6 0 4 -5 -4 -10 -27 -17 0 -11 41 10 22 12 38 24 35 28 -2
4 7 9 21 10 32 3 45 11 37 24 -4 7 -2 8 4 4 7 -4 12 -3 12 3 0 6 7 7 17 4 11
-4 14 -3 9 5 -5 8 0 12 14 12 12 0 19 4 16 9 -3 5 1 12 10 15 9 4 13 2 8 -5
-4 -7 -1 -10 7 -7 8 3 13 10 12 16 -1 5 4 13 13 16 9 3 12 2 8 -5 -3 -6 12 -1
35 10 23 12 41 26 41 31 0 14 99 62 112 54 6 -4 8 -3 5 3 -4 6 51 41 126 80
274 145 592 316 599 322 5 4 26 216 48 471 22 256 42 489 45 518 5 40 3 52 -7
51 -7 0 -305 -115 -663 -255z m-545 -1389 c0 -2 -10 -9 -22 -15 -22 -11 -22
-10 -4 4 21 17 26 19 26 11z"/>
<path d="M1881 3482 c-2 -27 -122 -70 -241 -87 -63 -8 -115 -17 -116 -18 -1
-2 -13 -160 -14 -189 0 -9 -87 -37 -94 -30 -3 3 -6 -1 -6 -9 0 -19 96 -41 171
-41 43 1 50 -1 35 -10 -21 -12 -181 -3 -221 12 -15 6 -25 6 -25 1 0 -37 243
-48 360 -17 36 10 73 19 82 21 34 7 61 27 48 35 -8 5 -3 13 19 26 20 12 31 26
31 40 0 13 12 37 27 56 27 33 27 33 1 10 l-25 -23 -7 38 c-3 21 -6 63 -7 93
-1 49 -16 124 -18 92z"/>
<path d="M1370 3150 c0 -5 5 -10 11 -10 5 0 7 5 4 10 -3 6 -8 10 -11 10 -2 0
-4 -4 -4 -10z"/>
<path d="M1324 3136 c11 -9 24 -16 30 -16 12 0 7 5 -24 19 -24 11 -24 11 -6
-3z"/>
<path d="M2618 3043 c7 -3 16 -2 19 1 4 3 -2 6 -13 5 -11 0 -14 -3 -6 -6z"/>
<path d="M3900 2150 c-9 -6 -10 -10 -3 -10 6 0 15 5 18 10 8 12 4 12 -15 0z"/>
</g>
</svg>
